<?xml version="1.0" standalone="no"?>
<!DOCTYPE svg PUBLIC "-//W3C//DTD SVG 20010904//EN"
 "http://www.w3.org/TR/2001/REC-SVG-20010904/DTD/svg10.dtd">
<svg version="1.0" xmlns="http://www.w3.org/2000/svg"
 width="1384.000000pt" height="1384.000000pt" viewBox="0 0 1384.000000 1384.000000"
 preserveAspectRatio="xMidYMid meet">
<metadata>
Created by potrace 1.11, written by Peter Selinger 2001-2013
</metadata>
<g transform="translate(0.000000,1384.000000) scale(0.100000,-0.100000)"
fill="#000000" stroke="none">
<path d="M4915 6202 c-1105 -494 -2039 -913 -2075 -933 -36 -20 -483 -289
-995 -597 -602 -363 -934 -570 -941 -584 -13 -27 -418 -2167 -411 -2174 2 -3
1451 1024 3218 2282 1768 1258 3221 2288 3229 2290 8 2 1462 -1026 3230 -2285
1994 -1419 3216 -2283 3218 -2275 4 17 -406 2201 -418 2229 -7 16 -9 13 -9
-17 -1 -21 -3 -38 -6 -38 -3 0 -387 230 -853 512 -466 281 -935 565 -1043 629
-193 115 -238 136 -2153 988 -1076 479 -1962 871 -1969 870 -6 0 -916 -404
-2022 -897z"/>
</g>
</svg>
